<?xml version="1.0" encoding="UTF-8" standalone="no"?>
<!DOCTYPE svg PUBLIC "-//W3C//DTD SVG 1.1//EN" "http://www.w3.org/Graphics/SVG/1.1/DTD/svg11.dtd">
<svg width="100%" height="100%" viewBox="0 0 990 664" version="1.1" xmlns="http://www.w3.org/2000/svg" xmlns:xlink="http://www.w3.org/1999/xlink" xml:space="preserve" xmlns:serif="http://www.serif.com/" style="fill-rule:evenodd;clip-rule:evenodd;stroke-linejoin:round;stroke-miterlimit:2;">
    <g>
        <path d="M506.33,143.67c20.96,19.254 58.896,18.487 87.034,8.705l0,-2.671c-38.721,-0.085 -59.554,-10.81 -84.584,-43.077c-12.243,8.115 -13.255,27.116 -2.45,37.043Zm-80.77,5.509l-0,32.232c97.395,23.78 195.809,11.507 236.903,-6.758l0,-3.492c-100.767,13.37 -192.163,0.878 -236.903,-21.982Zm124.805,62.318c-92.251,-0 -179.99,117.936 -179.99,117.936l74.124,0c18.468,-35.724 60.191,-107.445 98.342,-107.445c29.817,-0 20.162,46.074 4.415,79.889l42.862,0c9.276,-34.682 10.798,-90.384 -39.749,-90.384l-0.004,0.004Z" style="fill:rgb(255,40,34);fill-rule:nonzero;"/>
        <path d="M202.662,459.459c0,-4.309 0.077,-7.846 0.23,-10.618l-13.73,0l-26.08,44.893l-27.238,-44.893l-16.157,0c0.924,2.465 1.388,5.888 1.388,10.273l0,69.816l12.113,-0c-0.92,-3.074 -1.38,-6.578 -1.38,-10.503l-0,-49.619l27.119,45.583l2.537,-0l26.659,-45.353l0,59.892l15.808,-0c-0.843,-2.538 -1.265,-6.037 -1.265,-10.503l0,-58.968l-0.004,-0Zm127.098,-61.257c1.29,-2.151 1.955,-4.621 1.92,-7.129c-0,-4.96 -1.606,-8.832 -4.814,-11.614c-3.213,-2.787 -7.663,-4.178 -13.351,-4.178l-16.766,-0l0,46.33l11.645,0l-0,-14.872l6.217,-0l8.111,14.872l13.469,0l-11.338,-18.169c1.993,-1.38 3.63,-3.128 4.907,-5.24Zm-17.951,-0.425l-3.411,-0l-0,-13.535l3.53,0c5.244,0 7.866,2.235 7.866,6.708c-0,4.55 -2.661,6.823 -7.985,6.823l0,0.004Zm553.953,105.302c-2.618,-2.69 -6.926,-5.496 -12.925,-8.421c-4.078,-2.001 -7.003,-3.753 -8.77,-5.251c-1.771,-1.503 -2.656,-3.097 -2.656,-4.792c-0,-1.533 0.766,-2.863 2.307,-3.978c1.541,-1.116 3.465,-1.675 5.773,-1.675c5.152,-0 10.426,2.809 15.808,8.425l1.847,-0l0,-12.58c-7.156,-2.461 -13.155,-3.692 -18.004,-3.692c-5.692,0 -10.579,1.579 -14.654,4.73c-3.925,3.159 -5.887,7.042 -5.887,11.657c-0,4.001 1.192,7.233 3.58,9.694c2.537,2.537 7.424,5.615 14.654,9.233c3.538,1.768 5.979,3.347 7.329,4.73c1.345,1.384 2.02,3.04 2.02,4.96c-0,1.848 -0.848,3.408 -2.538,4.677c-1.694,1.269 -3.695,1.905 -6.003,1.905c-5.845,-0 -11.733,-2.695 -17.655,-8.08l-1.962,-0l-0,12.001c6.999,2.461 13.347,3.695 19.039,3.695c6.156,0 11.464,-1.575 15.926,-4.734c4.462,-3.074 6.697,-7.267 6.697,-12.576c-0,-3.925 -1.311,-7.233 -3.926,-9.928Zm-72.242,-31.964c-8.233,0 -15.002,2.733 -20.311,8.192c-5.232,5.466 -7.846,12.656 -7.846,21.58c-0,8.387 2.537,15.428 7.616,21.12c5.232,5.539 12.074,8.31 20.545,8.31c8.69,0 15.961,-2.154 21.81,-6.462l0,-7.966c-5.312,3.002 -11.119,4.504 -17.429,4.504c-5.232,0 -9.693,-1.886 -13.385,-5.657c-3.772,-3.845 -5.696,-9.039 -5.772,-15.578l39.699,0c-0,-18.698 -8.31,-28.043 -24.927,-28.043Zm-14.424,21.466c0.767,-4.156 2.365,-7.502 4.792,-10.043c2.418,-2.538 5.209,-3.806 8.364,-3.806c3.538,-0 6.347,1.211 8.425,3.633c2.077,2.427 3.15,5.827 3.231,10.216l-24.812,-0Zm-96.823,7.846c0.153,-5.846 0.23,-9.115 0.23,-9.809c-0,-7.616 -1.809,-12.772 -5.424,-15.463c-3.615,-2.694 -8.885,-4.04 -15.812,-4.04c-7.539,0 -14.308,1.963 -20.307,5.884l-0,7.85c5.845,-3.308 11.652,-4.964 17.425,-4.964c6.999,0 10.503,3.462 10.503,10.388l-0,2.423l-1.618,0.574c-11.384,4.313 -18.77,7.502 -22.155,9.583c-5.309,3.385 -7.965,7.728 -7.965,13.036c-0,4.313 1.502,7.793 4.5,10.446c3.001,2.652 6.926,3.982 11.771,3.982c5.309,0 10.771,-2.461 16.39,-7.386c0.46,2.767 0.959,4.772 1.495,5.999l14.083,-0c-2.154,-4.385 -3.231,-10.503 -3.231,-18.349c-0,-3.845 0.038,-7.23 0.115,-10.158l-0,0.004Zm-24.237,21.12c-2.154,0 -3.864,-0.694 -5.136,-2.077c-1.265,-1.388 -1.901,-3.351 -1.901,-5.888c-0.46,-2.538 0.996,-5.309 4.385,-8.306c0.46,-0.46 1.694,-1.192 3.691,-2.197l4.155,-1.843l5.424,-2.308c-0.153,3.078 -0.23,5.922 -0.23,8.54c-0,0.537 0.077,2.346 0.23,5.424c0.23,2.231 0.345,3.461 0.345,3.691c-3.845,3.308 -7.498,4.964 -10.963,4.964Zm-412.209,-50.432c-8.391,0 -15.659,2.733 -21.811,8.192c-6.006,5.389 -9.007,12.622 -9.007,21.695c-0,8.31 2.809,15.275 8.429,20.89c5.615,5.616 12.883,8.425 21.81,8.425c8.459,0 15.654,-2.694 21.58,-8.08c5.999,-5.382 9,-12.615 9,-21.695c0,-8.31 -2.81,-15.271 -8.425,-20.89c-5.692,-5.689 -12.887,-8.537 -21.58,-8.537l0.004,0Zm11.422,45.813c-2.695,3.542 -6.271,5.309 -10.732,5.309c-5.003,0 -9.043,-2.231 -12.117,-6.692c-3.154,-4.539 -4.734,-10.081 -4.734,-16.617c0,-6.002 1.369,-10.771 4.102,-14.313c2.725,-3.538 6.324,-5.308 10.786,-5.308c4.849,-0 8.847,2.273 12.001,6.811c3.155,4.538 4.734,10.004 4.734,16.386c0,6.08 -1.349,10.886 -4.04,14.424Zm447.413,-57.814c2.15,-0 3.982,-0.751 5.481,-2.25c1.499,-1.503 2.25,-3.251 2.25,-5.251c0,-2.078 -0.751,-3.845 -2.25,-5.309c-1.454,-1.442 -3.434,-2.234 -5.481,-2.193c-2.154,0 -4.002,0.751 -5.539,2.25c-1.541,1.499 -2.308,3.251 -2.308,5.252c0,2 0.767,3.748 2.308,5.251c1.533,1.499 3.385,2.25 5.539,2.25Zm-38.067,-65.73l20.849,28.227l10.544,0l0,-46.33l-11.215,-0l-0,28.288l-20.852,-28.288l-10.484,-0l0,46.33l11.155,0l-0,-28.227l0.003,0Zm-318.272,22.435c2.286,2.187 4.992,3.887 7.954,4.999c3.066,1.176 6.432,1.767 10.088,1.767c3.577,-0 6.889,-0.61 9.936,-1.829c2.966,-1.166 5.678,-2.894 7.988,-5.09c2.273,-2.172 4.077,-4.786 5.301,-7.682c1.276,-3.017 1.92,-6.264 1.894,-9.54c-0,-3.534 -0.621,-6.773 -1.859,-9.721c-1.196,-2.88 -2.97,-5.484 -5.213,-7.651c-2.288,-2.186 -4.995,-3.886 -7.958,-4.998c-3.066,-1.181 -6.428,-1.767 -10.089,-1.767c-3.576,-0 -6.888,0.609 -9.935,1.828c-3.047,1.219 -5.711,2.913 -7.988,5.091c-2.273,2.171 -4.077,4.786 -5.301,7.681c-1.274,3.017 -1.917,6.262 -1.89,9.537c0,3.538 0.617,6.781 1.859,9.724c1.194,2.881 2.969,5.486 5.213,7.651Zm7.252,-24.321c1.058,-1.993 2.523,-3.557 4.389,-4.695c1.871,-1.139 4.002,-1.706 6.401,-1.706c2.438,0 4.585,0.575 6.432,1.736c1.848,1.158 3.301,2.741 4.359,4.753c1.058,2.013 1.587,4.32 1.587,6.919c-0,2.561 -0.529,4.849 -1.587,6.861c-0.994,1.943 -2.502,3.576 -4.359,4.723c-1.847,1.138 -3.994,1.705 -6.432,1.705c-2.399,0 -4.53,-0.574 -6.401,-1.736c-1.867,-1.156 -3.385,-2.799 -4.389,-4.753c-1.054,-2.012 -1.583,-4.32 -1.583,-6.919c0,-2.602 0.529,-4.898 1.583,-6.888Zm180.504,20.787l-21.822,0l0,-9.452l18.468,-0l0,-9.33l-18.468,0l0,-8.9l20.967,-0l0,-9.326l-32.186,-0l-0,46.33l33.041,0l0,-9.326l0,0.004Zm-283.311,7.16c3.879,1.89 8.464,2.837 13.746,2.837c3.212,-0 6.382,-0.315 9.51,-0.947c2.952,-0.575 5.834,-1.464 8.597,-2.652l0,-23.773l-18.897,-0l0,8.962l7.862,-0l-0,7.558c-1.026,0.238 -2.062,0.431 -3.105,0.579c-1.031,0.144 -2.071,0.216 -3.113,0.215c-4.592,-0 -8.168,-1.188 -10.732,-3.565c-2.557,-2.38 -3.837,-5.723 -3.837,-10.031c-0,-2.802 0.609,-5.232 1.828,-7.283c1.229,-2.062 3.03,-3.725 5.183,-4.788c2.234,-1.134 4.856,-1.705 7.861,-1.705c4.795,-0 9.533,1.035 14.206,3.108l1.951,-9.812c-2.428,-1.164 -4.986,-2.033 -7.62,-2.591c-2.762,-0.622 -5.583,-0.939 -8.414,-0.947c-5.485,-0 -10.261,1.016 -14.324,3.047c-4.063,2.032 -7.226,4.88 -9.479,8.536c-2.258,3.657 -3.385,7.965 -3.385,12.922c-0,4.753 1.058,8.862 3.17,12.315c2.112,3.454 5.109,6.126 8.992,8.015Zm171.45,3.143c6.865,0 12.14,-1.82 15.819,-5.458c3.68,-3.637 5.52,-8.827 5.52,-15.574l-0,-26.275l-12.381,-0l0,25.421c0,7.397 -2.986,11.092 -8.958,11.092c-5.976,0 -8.962,-3.695 -8.962,-11.092l0,-25.421l-12.315,-0l-0,26.275c-0,6.747 1.84,11.937 5.519,15.574c3.68,3.638 8.931,5.455 15.754,5.455l0.004,0.003Zm287.366,48.642l-15.347,2.887c0.923,2.384 1.383,5.998 1.383,10.847l0,43.966l15.233,-0c-0.843,-2.998 -1.265,-6.731 -1.265,-11.193l0,-46.507l-0.004,0Zm-151.751,-0.115c-8.234,0 -15.003,2.733 -20.312,8.192c-5.232,5.466 -7.846,12.656 -7.846,21.58c-0,8.387 2.537,15.428 7.616,21.12c5.228,5.539 12.074,8.31 20.542,8.31c8.693,0 15.961,-2.154 21.81,-6.462l-0,-7.966c-5.309,3.002 -11.116,4.504 -17.425,4.504c-5.232,0 -9.698,-1.886 -13.389,-5.657c-3.768,-3.845 -5.692,-9.039 -5.769,-15.578l39.699,0c0,-18.698 -8.31,-28.043 -24.926,-28.043Zm-14.428,21.466c0.77,-4.156 2.369,-7.502 4.791,-10.043c2.423,-2.538 5.213,-3.806 8.368,-3.806c3.538,-0 6.347,1.211 8.425,3.633c2.078,2.427 3.151,5.827 3.231,10.216l-24.815,-0Zm76.566,-89.744l18.475,-0l0,-9.33l-18.475,-0l-0,-8.901l20.971,0l-0,-9.325l-32.187,-0l0,46.33l33.041,0l0,-9.326l-21.825,0l-0,-9.452l-0,0.004Zm-284.633,68.278l-15.463,2.887c1.073,2.384 1.614,5.998 1.614,10.847l-0,30.466c-4.309,3.767 -8.387,5.653 -12.232,5.653c-3.308,0 -5.657,-1.058 -7.041,-3.173c-1.384,-2.116 -2.078,-5.712 -2.078,-10.791l0,-35.889l-15.347,2.887c0.923,2.767 1.383,6.309 1.383,10.617l0,23.884c0,14.543 6.118,21.81 18.349,21.81c5.386,0 11.04,-2.61 16.966,-7.846l-0,6.463l15.117,-0c-0.834,-3.673 -1.259,-7.427 -1.265,-11.193l0,-46.622l-0.003,0Zm275.809,-13.504l-4.155,0c-5.539,8.621 -11.729,15.428 -18.579,20.431l-0,2.537l8.77,0l0,33.233c0,5.539 1.422,9.678 4.27,12.408c2.844,2.729 6.578,4.097 11.193,4.097c4.925,0 9.659,-1.234 14.197,-3.695l0,-8.655c-3.311,1.694 -6.424,2.541 -9.352,2.541c-4.228,0 -6.344,-3.116 -6.344,-9.352l-0,-30.577l15.696,0l0,-8.08l-15.696,0l-0,-14.888Zm-93.359,13.504l-15.466,2.887c1.077,2.384 1.618,5.998 1.618,10.847l-0,30.466c-4.309,3.767 -8.387,5.653 -12.232,5.653c-3.312,0 -5.657,-1.058 -7.041,-3.173c-1.384,-2.116 -2.078,-5.712 -2.078,-10.791l0,-35.889l-15.347,2.887c0.92,2.767 1.383,6.309 1.383,10.617l0,23.884c0,14.543 6.118,21.81 18.349,21.81c5.386,0 11.04,-2.61 16.966,-7.846l-0,6.463l15.117,-0c-0.835,-3.673 -1.26,-7.427 -1.269,-11.193l0,-46.622Zm202.403,-49.504l12.373,0l-0,-36.395l14.205,-0l0,-9.935l-40.784,-0l0,9.935l14.206,-0l-0,36.395Zm-233.842,-18.897c3.209,-2.806 4.815,-6.685 4.815,-11.645c-0,-3.25 -0.728,-6.056 -2.193,-8.414c-1.464,-2.353 -3.549,-4.174 -6.248,-5.454c-2.706,-1.28 -5.926,-1.917 -9.663,-1.917l-16.827,0l-0,46.327l11.645,0l-0,-14.692l5.182,-0c5.646,-0 10.077,-1.403 13.289,-4.205Zm-18.475,-4.753l0,-13.723l3.354,0c5.366,0 8.049,2.281 8.049,6.831c0,4.592 -2.683,6.888 -8.049,6.888l-3.35,0l-0.004,0.004Zm128.201,23.65l0,-46.33l-12.68,-0l-12.434,25.846l-12.496,-25.846l-12.986,-0l-0,46.33l11.277,0l-0,-29.078l9.264,19.143l9.514,-0l9.264,-19.143l0,29.078l11.277,0Zm-222.307,73.047c-4.078,-2.001 -7.003,-3.753 -8.774,-5.251c-1.771,-1.503 -2.652,-3.097 -2.652,-4.792c-0,-1.533 0.766,-2.863 2.307,-3.978c1.541,-1.116 3.461,-1.675 5.769,-1.675c5.155,-0 10.426,2.809 15.811,8.425l1.848,-0l-0,-12.58c-7.156,-2.461 -13.155,-3.692 -18.004,-3.692c-5.696,0 -10.579,1.579 -14.654,4.73c-3.925,3.159 -5.888,7.042 -5.888,11.657c0,4.001 1.193,7.233 3.581,9.694c2.537,2.537 7.42,5.615 14.653,9.233c3.538,1.768 5.98,3.347 7.329,4.73c1.342,1.384 2.02,3.04 2.02,4.96c0,1.848 -0.847,3.408 -2.541,4.677c-1.69,1.269 -3.691,1.905 -5.999,1.905c-5.849,-0 -11.733,-2.695 -17.659,-8.08l-1.958,-0l-0,12.001c6.999,2.461 13.346,3.695 19.038,3.695c6.156,0 11.461,-1.575 15.927,-4.734c4.462,-3.074 6.692,-7.267 6.692,-12.576c0,-3.925 -1.307,-7.233 -3.925,-9.928c-2.614,-2.69 -6.922,-5.496 -12.921,-8.421Zm372.921,-20.599c-2.887,1.959 -5.597,5.136 -8.138,9.518l-0,-12.462l-15.348,3.002c0.92,2.69 1.38,6.309 1.38,10.847l0,43.966l15.237,-0c-0.847,-2.998 -1.269,-6.731 -1.269,-11.193l-0,-14.079c-0,-6.386 1.173,-11.484 3.519,-15.294c2.346,-3.806 5.443,-5.711 9.291,-5.711c2.231,-0 4.462,1.004 6.693,3.001l2.077,0l0,-14.309c-1.847,-0.153 -2.848,-0.23 -3.001,-0.23c-4.078,0 -7.559,0.982 -10.445,2.944l0.004,0Zm-292.603,2.135c-7.346,-3.377 -15.342,-5.11 -23.427,-5.079c-8.694,0 -16.003,2.963 -21.926,8.885c-5.849,5.85 -8.77,13.27 -8.77,22.271c0,7.773 2.193,14.389 6.578,19.855c4.538,5.462 10.234,8.191 17.08,8.191c5.152,0 10.656,-2.192 16.502,-6.577l-0,32.658l15.462,-2.887c-0.996,-2.307 -1.499,-5.926 -1.499,-10.847l0,-66.47Zm-13.963,40.504c-3.849,2.772 -7.463,4.155 -10.848,4.155c-4.232,0 -7.812,-1.924 -10.733,-5.768c-2.848,-3.849 -4.27,-8.889 -4.27,-15.118c0,-6.156 1.403,-11.154 4.213,-15.003c2.809,-3.848 6.324,-5.772 10.56,-5.772c3.826,-0.021 7.61,0.808 11.078,2.426l-0,35.08Z" style="fill-rule:nonzero;"/>
    </g>
</svg>
